# xmcd
# Copyright (C) 1995-1998 Ti Kan
#
# Track frame offsets:
#       150
#       21830
#       38095
#       64095
#       86305
#       111602
#       131620
#       146020
#       159907
#       176502
#       196717
#
# Disc length: 2891 seconds
#
# Revision: 0
# Processed by: cddbd v1.5.2PL0 Copyright (c) Steve Scherf et al.
# Submitted via: CD-Import v1.0
#
DISCID=8d0b490b
DTITLE=James - Pleased To Meet You
DYEAR=1900
DGENRE=
TTITLE0=Space
TTITLE1=Falling Down
TTITLE2=English Beefcake
TTITLE3=Junkie
TTITLE4=Pleased To Meet You
TTITLE5=The Shining
TTITLE6=Senorita
TTITLE7=Give It Away
TTITLE8=Fine
TTITLE9=Getting Away With It (All Messed Up)
TTITLE10=Alaskan Pipeline
EXTD=
EXTT0=
EXTT1=
EXTT2=
EXTT3=
EXTT4=
EXTT5=
EXTT6=
EXTT7=
EXTT8=
EXTT9=
EXTT10=
PLAYORDER=
